<svg width="22" height="17" viewBox="0 0 22 17" fill="none" xmlns="http://www.w3.org/2000/svg">
<path d="M1.25 11.5307C1.25 12.7242 1.72411 13.8688 2.56802 14.7127C3.41193 15.5566 4.55653 16.0307 5.75 16.0307H17C17.8778 16.0316 18.7282 15.7246 19.4029 15.1631C20.0776 14.6015 20.534 13.8211 20.6924 12.9577C20.8509 12.0943 20.7015 11.2026 20.2701 10.4381C19.8388 9.67354 19.1529 9.08454 18.332 8.77368C18.5176 8.24592 18.5519 7.67678 18.431 7.13055C18.3102 6.58432 18.039 6.08276 17.6481 5.68252C17.2572 5.28229 16.7622 4.99932 16.219 4.86558C15.6758 4.73184 15.106 4.75266 14.574 4.92568C14.2299 3.60571 13.3856 2.47148 12.2198 1.7632C11.054 1.05492 9.65826 0.828191 8.32821 1.13104C6.99817 1.43388 5.83821 2.24252 5.09398 3.3857C4.34976 4.52889 4.0797 5.91685 4.341 7.25568C3.44158 7.55253 2.65869 8.12549 2.10374 8.89301C1.54879 9.66054 1.25004 10.5835 1.25 11.5307V11.5307Z" stroke="#5AC4FF" stroke-width="1.5" stroke-linecap="round" stroke-linejoin="round"/>
</svg>
