<svg width="20" height="20" viewBox="0 0 20 20" fill="none" xmlns="http://www.w3.org/2000/svg">
<path d="M10.75 1.02998V1.59798C10.75 1.93198 10.898 2.24798 11.155 2.46198L12.223 3.35198C12.665 3.72098 12.758 4.36198 12.439 4.84198L11.929 5.60798C11.6513 6.02419 11.2428 6.33595 10.768 6.49398L10.625 6.54198C10.4637 6.59593 10.3169 6.68634 10.1962 6.80621C10.0754 6.92607 9.98393 7.07215 9.9288 7.23311C9.87366 7.39407 9.85637 7.56556 9.87826 7.73429C9.90015 7.90301 9.96064 8.06442 10.055 8.20598C10.424 8.76098 10.224 9.51298 9.62803 9.81098L7.00003 11.125L7.42303 12.184C7.50834 12.3991 7.51275 12.6378 7.43543 12.8559C7.35812 13.074 7.20433 13.2566 7.00259 13.3699C6.80085 13.4833 6.56486 13.5196 6.33839 13.4721C6.11191 13.4247 5.91033 13.2967 5.77103 13.112L5.09203 12.206C4.97695 12.0526 4.82459 11.9312 4.64941 11.8533C4.47423 11.7754 4.28205 11.7435 4.09109 11.7608C3.90014 11.778 3.71676 11.8437 3.55836 11.9518C3.39996 12.0598 3.27179 12.2065 3.18603 12.378L2.50003 13.75L1.88803 13.903M10.75 1.03098C9.16909 0.89831 7.58116 1.18591 6.14717 1.86462C4.71318 2.54334 3.48408 3.58906 2.58442 4.89581C1.68476 6.20256 1.14652 7.7239 1.02422 9.30568C0.901923 10.8875 1.19993 12.4735 1.88803 13.903M10.75 1.03098C12.3177 1.16172 13.8238 1.7011 15.118 2.59534C16.4123 3.48958 17.4495 4.70744 18.1264 6.12751C18.8032 7.54759 19.096 9.12028 18.9756 10.6888C18.8552 12.2573 18.3257 13.7669 17.44 15.067M17.44 15.067L17.263 14.538C17.1136 14.09 16.827 13.7004 16.4438 13.4243C16.0606 13.1483 15.6003 12.9998 15.128 13H14.5L14.176 12.676C14.0133 12.513 13.8141 12.391 13.5949 12.3201C13.3758 12.2492 13.1429 12.2314 12.9155 12.2682C12.6881 12.3051 12.4727 12.3954 12.2871 12.5319C12.1015 12.6683 11.951 12.8469 11.848 13.053L11.812 13.126C11.7138 13.3226 11.5758 13.4967 11.4068 13.6372C11.2377 13.7776 11.0413 13.8814 10.83 13.942L9.84003 14.224C9.29003 14.381 8.94603 14.926 9.04003 15.491L9.11303 15.929C9.19303 16.403 9.60303 16.75 10.083 16.75C10.929 16.75 11.681 17.292 11.948 18.095L12.163 18.738M17.439 15.068C16.1912 16.8981 14.313 18.2046 12.163 18.738M12.163 18.738C10.1556 19.2353 8.03805 19.0261 6.16672 18.1455C4.2954 17.265 2.78444 15.7668 1.88803 13.903M13.75 6.99998C13.75 7.89598 13.357 8.69998 12.734 9.24998" stroke="#4E6C50" stroke-width="1.5" stroke-linecap="round" stroke-linejoin="round"/>
</svg>
